<?xml version="1.0" encoding="UTF-8" standalone="no"?>
<svg
   xmlns:osb="http://www.openswatchbook.org/uri/2009/osb"
   xmlns:dc="http://purl.org/dc/elements/1.1/"
   xmlns:cc="http://creativecommons.org/ns#"
   xmlns:rdf="http://www.w3.org/1999/02/22-rdf-syntax-ns#"
   xmlns:svg="http://www.w3.org/2000/svg"
   xmlns="http://www.w3.org/2000/svg"
   xmlns:sodipodi="http://sodipodi.sourceforge.net/DTD/sodipodi-0.dtd"
   xmlns:inkscape="http://www.inkscape.org/namespaces/inkscape"
   width="210mm"
   height="297mm"
   viewBox="0 0 210 297"
   version="1.1"
   id="svg8"
   inkscape:version="1.0.2-2 (e86c870879, 2021-01-15)"
   sodipodi:docname="icons.svg">
  <defs
     id="defs2">
    <linearGradient
       id="linearGradient3578"
       osb:paint="solid">
      <stop
         style="stop-color:#e6e6e6;stop-opacity:1;"
         offset="0"
         id="stop3576" />
    </linearGradient>
    <clipPath
       clipPathUnits="userSpaceOnUse"
       id="clipPath1322">
      <rect
         style="opacity:0.7;fill:none;stroke:#000000;stroke-width:4;stroke-opacity:1"
         id="rect1324"
         width="78.619049"
         height="87.690468"
         x="236.61308"
         y="-163.28571"
         ry="39.309525" />
    </clipPath>
    <clipPath
       clipPathUnits="userSpaceOnUse"
       id="clipPath1353">
      <rect
         style="opacity:0.7;fill:none;stroke:#000000;stroke-width:3.82048;stroke-opacity:1"
         id="rect1355"
         width="71.720787"
         height="87.690468"
         x="232.82109"
         y="-397.94238"
         ry="39.309525" />
    </clipPath>
    <clipPath
       clipPathUnits="userSpaceOnUse"
       id="clipPath1384">
      <rect
         style="opacity:0.7;fill:none;stroke:#000000;stroke-width:3.86318;stroke-opacity:1"
         id="rect1386"
         width="73.333252"
         height="87.690468"
         x="-100.60418"
         y="-525.6983"
         ry="39.309525" />
    </clipPath>
    <clipPath
       clipPathUnits="userSpaceOnUse"
       id="clipPath1415">
      <rect
         style="opacity:0.7;fill:none;stroke:#000000;stroke-width:4;stroke-opacity:1"
         id="rect1417"
         width="78.619049"
         height="87.690468"
         x="255.07436"
         y="-272.45428"
         ry="39.309525" />
    </clipPath>
    <clipPath
       clipPathUnits="userSpaceOnUse"
       id="clipPath1446">
      <rect
         style="opacity:0.7;fill:none;stroke:#000000;stroke-width:4;stroke-opacity:1"
         id="rect1448"
         width="78.619049"
         height="87.690468"
         x="744.17548"
         y="-381.31146"
         ry="39.309525" />
    </clipPath>
    <clipPath
       clipPathUnits="userSpaceOnUse"
       id="clipPath1477">
      <rect
         style="opacity:0.7;fill:none;stroke:#000000;stroke-width:4;stroke-opacity:1"
         id="rect1479"
         width="78.619049"
         height="87.690468"
         x="715.44934"
         y="-518.89478"
         ry="39.309525" />
    </clipPath>
    <filter
       inkscape:collect="always"
       style="color-interpolation-filters:sRGB"
       id="filter3838"
       x="-0.0039050566"
       width="1.0078101"
       y="-0.0039317691"
       height="1.0078635">
      <feGaussianBlur
         inkscape:collect="always"
         stdDeviation="0.35738774"
         id="feGaussianBlur3840" />
    </filter>
    <filter
       inkscape:collect="always"
       style="color-interpolation-filters:sRGB"
       id="filter934"
       x="-9.6000003e-06"
       width="1.0000192"
       y="-1.2342858e-05"
       height="1.0000247">
      <feGaussianBlur
         inkscape:collect="always"
         stdDeviation="0.00019243406"
         id="feGaussianBlur936" />
    </filter>
    <clipPath
       clipPathUnits="userSpaceOnUse"
       id="clipPath951">
      <ellipse
         style="opacity:1;fill:none;stroke:#000000;stroke-width:5.78099;stroke-opacity:1;filter:url(#filter934)"
         id="ellipse953"
         ry="33.675961"
         rx="24.054256"
         cy="-26.192413"
         cx="-25.123335"
         transform="matrix(1.0444442,0,0,0.99999959,2.1856639,-1.0588897e-5)" />
    </clipPath>
    <clipPath
       clipPathUnits="userSpaceOnUse"
       id="clipPath994">
      <ellipse
         style="opacity:1;fill:none;stroke:#000000;stroke-width:5.78099;stroke-opacity:1;filter:url(#filter934)"
         id="ellipse996"
         ry="33.675961"
         rx="24.054256"
         cy="-26.192413"
         cx="-25.123335"
         transform="matrix(1.0444442,0,0,0.99999959,78.09021,1.0690675)" />
    </clipPath>
    <clipPath
       clipPathUnits="userSpaceOnUse"
       id="clipPath1024">
      <ellipse
         style="opacity:1;fill:none;stroke:#000000;stroke-width:5.78099;stroke-opacity:1;filter:url(#filter934)"
         id="ellipse1026"
         ry="33.675961"
         rx="24.054256"
         cy="-26.192413"
         cx="-25.123335"
         transform="matrix(1.0444442,0,0,0.99999959,155.06383,2.1381456)" />
    </clipPath>
  </defs>
  <sodipodi:namedview
     id="base"
     pagecolor="#ffffff"
     bordercolor="#666666"
     borderopacity="1.0"
     inkscape:pageopacity="0.0"
     inkscape:pageshadow="2"
     inkscape:zoom="0.49497475"
     inkscape:cx="663.69555"
     inkscape:cy="1057.1638"
     inkscape:document-units="mm"
     inkscape:current-layer="layer1"
     inkscape:document-rotation="0"
     showgrid="false"
     inkscape:window-width="1920"
     inkscape:window-height="991"
     inkscape:window-x="-9"
     inkscape:window-y="-9"
     inkscape:window-maximized="1" />
  <metadata
     id="metadata5">
    <rdf:RDF>
      <cc:Work
         rdf:about="">
        <dc:format>image/svg+xml</dc:format>
        <dc:type
           rdf:resource="http://purl.org/dc/dcmitype/StillImage" />
        <dc:title />
      </cc:Work>
    </rdf:RDF>
  </metadata>
  <g
     inkscape:label="Ebene 1"
     inkscape:groupmode="layer"
     id="layer1">
    <path
       style="fill:#000000;stroke-width:0.264583"
       d="m 366.20375,108.49161 c -0.0635,-0.1819 -0.14909,-0.86651 -0.19013,-1.52135 -0.0746,-1.19062 -0.0746,-1.19062 -2.98505,-1.32292 -2.49034,-0.11319 -3.12771,-0.23899 -4.41592,-0.8716 -2.3086,-1.13368 -3.839,-3.0153 -6.12803,-7.53436 -2.10376,-4.15331 -3.25804,-5.62624 -5.04508,-6.43787 -0.90993,-0.41327 -1.7683,-0.49129 -5.45857,-0.49619 -4.72069,-0.006 -5.01386,-0.0867 -5.01386,-1.37554 0,-1.40895 0.75503,-1.60591 5.75528,-1.50133 4.40359,0.0921 4.45929,0.10073 6.20602,0.96092 2.48509,1.22381 3.7215,2.72709 6.15247,7.48046 3.07758,6.0177 4.12287,6.8651 8.46836,6.8651 2.52204,0 2.52204,0 2.52204,-1.4269 0,-1.0726 0.10667,-1.46784 0.42961,-1.59176 0.26773,-0.10274 1.81255,0.60938 4.09988,1.88992 2.93231,1.64164 3.6705,2.16869 3.67143,2.62134 10e-4,0.45236 -0.72061,0.97238 -3.57942,2.57969 -3.61857,2.03448 -4.27955,2.2822 -4.48903,1.68239 z m -28.6486,-2.72698 c -0.64783,-0.45376 -0.7968,-1.65477 -0.27054,-2.18104 0.22087,-0.22086 1.6503,-0.31926 4.69636,-0.32331 3.6856,-0.005 4.54641,-0.0829 5.43719,-0.49309 1.24449,-0.57299 3.13854,-2.42368 3.58597,-3.50388 0.17308,-0.41784 0.3945,-0.75972 0.49205,-0.75972 0.0976,0 0.50439,0.66679 0.90408,1.48174 0.72671,1.48173 0.72671,1.48173 -0.25629,2.68135 -1.17369,1.43235 -2.92173,2.59167 -4.70769,3.12222 -1.89686,0.56349 -9.06712,0.54588 -9.88113,-0.0243 z m 17.85386,-12.16528 c -0.71833,-1.46466 -0.71833,-1.46466 0.50725,-2.77491 0.67407,-0.72063 1.89525,-1.63911 2.71374,-2.04106 1.26863,-0.62302 1.91749,-0.75034 4.39857,-0.86312 2.91042,-0.13229 2.91042,-0.13229 3.04271,-1.58521 0.0981,-1.07684 0.24614,-1.47449 0.57215,-1.53629 0.24191,-0.0459 2.05762,0.82799 4.03489,1.94187 2.8865,1.6261 3.59409,2.13747 3.59021,2.59463 -0.004,0.45532 -0.74104,0.98031 -3.68006,2.62084 -2.23749,1.24894 -3.83992,1.98827 -4.09621,1.88992 -0.31407,-0.12052 -0.42098,-0.52985 -0.42098,-1.61185 0,-1.45031 0,-1.45031 -2.88866,-1.36076 -2.71343,0.0841 -2.95687,0.13771 -4.01324,0.88331 -0.61852,0.43656 -1.49151,1.35281 -1.93999,2.0361 -0.44847,0.6833 -0.87989,1.24884 -0.95872,1.25677 -0.0788,0.008 -0.46657,-0.64468 -0.86166,-1.45024 z"
       id="path1574"
       inkscape:export-xdpi="96"
       inkscape:export-ydpi="96" />
    <path
       style="fill:#000000;stroke-width:0.264583"
       d="m 401.18469,49.692652 c -6.23434,-1.130097 -11.48653,-3.897011 -15.9521,-8.403759 -3.9446,-3.980966 -6.71541,-9.247637 -7.96776,-15.144832 -0.43647,-2.055336 -0.43505,-8.802375 0.002,-10.847916 2.05912,-9.6309503 7.88539,-17.0818853 16.57652,-21.1989123 6.41083,-3.036842 14.59687,-3.580301 21.30184,-1.414197 2.7391,0.884892 6.35507,2.742725 8.62162,4.429657 12.45887,9.272833 15.60909,26.6276373 7.18053,39.5581833 -4.4924,6.891959 -11.61429,11.614378 -19.62147,13.010713 -2.79398,0.487231 -7.48637,0.492348 -10.14146,0.01106 z m 6.24599,-23.32796 c 4.31589,-2.425266 8.05544,-4.586843 8.3101,-4.803505 0.78613,-0.668822 0.57626,-1.55811 -0.52916,-2.242286 -3.94461,-2.441408 -15.44437,-8.652964 -16.01967,-8.652964 -0.41793,0 -0.80618,0.204737 -0.9705,0.511773 -0.17333,0.323858 -0.27389,3.799638 -0.27389,9.466127 0,7.676173 0.0588,9.038296 0.41187,9.542393 0.22654,0.323422 0.59464,0.588039 0.81802,0.588039 0.22338,0 3.93733,-1.984309 8.25323,-4.409577 z"
       id="path1582"
       inkscape:export-xdpi="96"
       inkscape:export-ydpi="96" />
    <path
       style="fill:#000000;stroke-width:0.264583"
       d="m 559.42465,153.96977 c -1.19281,-0.66683 -1.19063,-0.64697 -1.19063,-10.83463 0,-9.09262 0.0315,-9.74855 0.49508,-10.32109 0.7332,-0.90547 2.28136,-0.84688 3.11109,0.11773 0.62717,0.72913 0.62717,0.72913 0.62717,10.22462 0,9.47338 -10e-4,9.49705 -0.59531,10.16175 -0.70804,0.7924 -1.71568,1.06069 -2.4474,0.65162 z m -20.18771,-1.34128 c -0.23511,-0.23511 -0.3175,-2.77312 -0.3175,-9.78028 0,-9.29814 0.01,-9.46787 0.5476,-9.75584 0.47407,-0.25372 1.66237,0.33332 8.85083,4.37244 8.60931,4.83749 9.17134,5.26548 8.15792,6.21221 -0.64556,0.60308 -16.15293,9.26897 -16.58656,9.26897 -0.18413,0 -0.47766,-0.14288 -0.65229,-0.3175 z"
       id="path1578"
       inkscape:export-xdpi="96"
       inkscape:export-ydpi="96" />
    <path
       style="fill:#000000;stroke-width:0.264583"
       d="m 471.08917,121.65552 c -0.7734,-0.7734 -0.7734,-0.7734 -0.7734,-10.28307 0,-9.22005 0.0167,-9.5309 0.54837,-10.20681 0.69963,-0.88944 2.34666,-0.97711 3.15579,-0.16798 0.51013,0.51013 0.52917,0.88195 0.52917,10.33078 0,9.80161 0,9.80161 -0.64943,10.45104 -0.87377,0.87378 -1.85609,0.83045 -2.8105,-0.12396 z m 20.55682,-0.58543 c -3.05947,-1.61361 -15.16809,-8.5202 -15.49017,-8.83539 -0.85536,-0.83706 0.0245,-1.49581 7.81675,-5.85256 9.55847,-5.34424 8.72117,-4.93366 9.36195,-4.59073 0.51409,0.27514 0.52917,0.55399 0.52917,9.78959 0,9.12789 -0.0204,9.51728 -0.51178,9.78027 -0.62389,0.3339 -0.47138,0.35993 -1.70592,-0.29118 z"
       id="path1580"
       inkscape:export-xdpi="96"
       inkscape:export-ydpi="96" />
    <path
       style="fill:#000000;stroke-width:0.264583"
       d="m 419.15692,112.64001 c -5.0222,-1.69959 -8.67201,-5.75195 -9.74614,-10.82105 -0.7481,-3.530478 -0.32306,-6.626695 1.38491,-10.088459 0.95853,-1.942772 0.95853,-1.942772 0.10773,-2.737917 -0.46794,-0.43733 -0.80568,-0.932302 -0.75052,-1.099938 0.1261,-0.383258 7.41284,-2.417388 7.93789,-2.215905 0.3227,0.123833 0.21102,0.781216 -0.66944,3.940287 -0.58121,2.085414 -1.16045,3.903983 -1.28718,4.04127 -0.14009,0.151746 -0.55001,-0.05572 -1.04558,-0.529167 -0.79253,-0.757177 -0.8256,-0.76454 -1.19218,-0.265438 -1.58213,2.154079 -2.04059,6.875351 -0.94237,9.704657 1.79562,4.62603 6.02869,7.62174 10.7897,7.6358 10.35742,0.0306 15.55702,-12.33517 8.26135,-19.647245 -2.03484,-2.039414 -4.26685,-3.08728 -7.01948,-3.295461 -1.65891,-0.125464 -2.16614,-0.270949 -2.65739,-0.762195 -0.73977,-0.739775 -0.76165,-1.176054 -0.0998,-1.990937 0.45761,-0.563456 0.69161,-0.618518 2.38945,-0.56227 2.25795,0.07481 5.29545,1.030935 7.24416,2.280284 3.0326,1.944242 5.78513,5.91425 6.50219,9.378196 1.58333,7.648688 -3.22352,15.427448 -10.74373,17.386218 -2.50346,0.65207 -5.91851,0.51055 -8.46353,-0.35073 z"
       id="path1576"
       inkscape:export-xdpi="96"
       inkscape:export-ydpi="96" />
    <path
       style="fill:#000000;stroke-width:0.264583"
       d="m 429.10516,192.77888 c -6.77545,-0.79086 -13.12594,-4.0336 -17.98357,-9.18294 -9.1652,-9.7156 -10.48639,-24.84502 -3.14585,-36.02406 7.06963,-10.76644 19.98542,-15.68554 32.42,-12.34747 10.88811,2.92293 19.07039,11.85982 21.1899,23.14417 0.57995,3.08765 0.38493,9.31307 -0.3873,12.36379 -3.62099,14.30483 -17.38904,23.76283 -32.09318,22.04651 z m -1.82222,-18.41399 c 1.57902,-0.93275 1.59804,-1.05984 1.59804,-10.67976 0,-9.79489 -0.0159,-9.88936 -1.81115,-10.74125 -1.39076,-0.65996 -2.88342,-0.35745 -3.94338,0.79916 -0.86005,0.93848 -0.86005,0.93848 -0.86005,9.91791 0,8.97941 0,8.97941 0.70602,9.81848 0.38832,0.46148 0.95386,0.93932 1.25677,1.06186 0.90166,0.36476 2.27161,0.28562 3.05375,-0.1764 z m 14.24782,-0.10321 c 1.56034,-0.95131 1.63772,-1.45106 1.63772,-10.57655 0,-9.12549 -0.0774,-9.62524 -1.63772,-10.57655 -1.64997,-1.00596 -3.55135,-0.58438 -4.63819,1.02838 -0.59712,0.88607 -0.60325,0.98235 -0.60325,9.46814 0,9.47277 0.0319,9.67744 1.66649,10.67407 1.08935,0.66422 2.46787,0.65748 3.57495,-0.0175 z"
       id="path1572"
       inkscape:export-xdpi="96"
       inkscape:export-ydpi="96" />
    <path
       style="opacity:1;fill:none;fill-opacity:1;stroke:none;stroke-width:44.1426;stroke-miterlimit:4;stroke-dasharray:none;stroke-opacity:1;filter:url(#filter3838)"
       d="m 1502.2084,182.70605 c -46.4079,-15.82105 -76.6068,-57.00603 -76.6068,-104.475468 0,-49.532155 34.3028,-93.500683 82.7845,-106.111081 19.2372,-5.00372 49.2165,-3.330772 66.2815,3.698741 37.2597,15.3481351 63.3728,47.995112 69.3921,86.754976 8.1751,52.641082 -26.6708,106.277702 -78.9667,121.549372 -16.6833,4.87195 -46.4023,4.2025 -62.8846,-1.41654 z m 39.6031,-82.866955 c 34.5164,-19.166182 36.7835,-22.089095 23.5922,-30.416394 -14.0954,-8.898038 -54.2381,-29.577915 -57.4151,-29.577915 -3.9969,0 -5.6705,11.921008 -5.6412,40.183001 0.029,27.505503 1.4903,36.588593 5.8883,36.588593 1.8488,0 16.9579,-7.54978 33.5758,-16.777285 z"
       id="path1641"
       transform="scale(0.26458333)" />
    <path
       style="opacity:1;fill:#808080;fill-opacity:1;stroke:none;stroke-width:7.80337;stroke-miterlimit:4;stroke-dasharray:none;stroke-opacity:1"
       d=""
       id="path3852"
       transform="scale(0.26458333)" />
    <path
       style="opacity:1;fill:#808080;fill-opacity:1;stroke:none;stroke-width:7.80337;stroke-miterlimit:4;stroke-dasharray:none;stroke-opacity:1"
       d=""
       id="path3856"
       transform="scale(0.26458333)" />
    <path
       style="opacity:1;fill:#808080;fill-opacity:1;stroke:none;stroke-width:7.80337;stroke-miterlimit:4;stroke-dasharray:none;stroke-opacity:1"
       d=""
       id="path3858"
       transform="scale(0.26458333)" />
    <path
       style="opacity:1;fill:#808080;fill-opacity:1;stroke:none;stroke-width:7.80337;stroke-miterlimit:4;stroke-dasharray:none;stroke-opacity:1"
       d=""
       id="path3862"
       transform="scale(0.26458333)" />
    <path
       style="opacity:1;fill:#808080;fill-opacity:1;stroke:none;stroke-width:7.80337;stroke-miterlimit:4;stroke-dasharray:none;stroke-opacity:1"
       d=""
       id="path3864"
       transform="scale(0.26458333)" />
    <path
       style="opacity:1;fill:#808080;fill-opacity:1;stroke:none;stroke-width:15.6067;stroke-miterlimit:4;stroke-dasharray:none;stroke-opacity:1"
       d="m 1280.0748,400.43557 c -2.341,-0.35704 -3.9296,-1.07367 -4.8214,-2.17499 -2.5891,-3.19735 -1.0536,-7.13761 2.8281,-7.25774 30.6917,-0.94982 32.6584,-1.08414 35.403,-2.41803 3.754,-1.82445 10.8062,-8.46205 13.0395,-12.27287 1.0015,-1.70887 1.9464,-3.10703 2.0998,-3.10703 0.6333,0 4.5853,8.64696 4.5853,10.03266 0,1.90469 -6.9305,9.22381 -11.5271,12.17342 -6.3771,4.09215 -10.9233,5.04912 -25.2586,5.3169 -7.0714,0.13209 -14.4283,5.4e-4 -16.3486,-0.29232 z"
       id="path3872"
       transform="scale(0.26458333)" />
    <path
       style="opacity:1;fill:#333333;fill-opacity:1;stroke:none;stroke-width:15.6067;stroke-miterlimit:4;stroke-dasharray:none;stroke-opacity:1"
       d="m 1594.2805,427.69452 c -19.1797,-2.65244 -36.9693,-16.63801 -43.8707,-34.48961 -2.7259,-7.05114 -3.6293,-12.28772 -3.6293,-21.0384 0,-8.46052 1.4824,-14.62606 5.8469,-24.31874 1.5921,-3.53572 2.8966,-7.17539 2.8989,-8.08816 0,-0.91278 -1.0002,-2.69594 -2.2279,-3.96258 -1.2277,-1.26664 -2.2322,-2.67438 -2.2322,-3.1283 0,-1.18764 24.9121,-8.74286 28.8471,-8.74861 0.3481,-5.1e-4 0.4443,1.36515 0.214,3.03479 -0.5154,3.73469 -6.0291,23.11847 -7.2358,25.43758 l -0.878,1.68758 -2.5963,-2.27956 c -1.428,-1.25375 -3.1679,-2.17388 -3.8665,-2.04472 -1.7961,0.33207 -4.9967,7.12303 -6.3385,13.44912 -1.3575,6.39963 -1.0201,17.76748 0.6893,23.22834 3.857,12.32146 16.0776,24.45391 28.5987,28.39241 6.7999,2.13891 20.2077,2.26032 26.1375,0.23669 16.6829,-5.69333 27.0053,-17.24667 30.4066,-34.03245 2.992,-14.76597 -1.9842,-29.76747 -13.3712,-40.30982 -7.4215,-6.87105 -14.2341,-9.93613 -24.7996,-11.15786 -3.3904,-0.39204 -7.0611,-1.06283 -8.1571,-1.49064 -6.9231,-2.70232 -4.1665,-10.58096 3.702,-10.58096 11.1362,0 25.9681,5.4249 34.5245,12.62768 9.2979,7.8269 17.3082,21.08474 19.5432,32.34575 2.1793,10.98075 0.6162,22.91988 -4.3905,33.53461 -7.718,16.36307 -21.6094,27.53577 -38.7537,31.16931 -4.4476,0.9426 -14.1207,1.20981 -19.0614,0.52655 z"
       id="path3874"
       transform="scale(0.26458333)" />
    <path
       style="opacity:1;fill:#333333;fill-opacity:1;stroke:none;stroke-width:15.6067;stroke-miterlimit:4;stroke-dasharray:none;stroke-opacity:1"
       d="m 1277.7803,399.32781 c -2.2568,-0.98242 -3.1426,-2.31751 -3.1426,-4.73628 0,-2.83375 2.4539,-3.33962 18.5714,-3.82841 8.4464,-0.25616 16.5721,-0.74414 18.057,-1.08442 4.6356,-1.06223 12.6235,-8.12899 16.6966,-14.77122 0.7364,-1.20085 1.0242,-0.90188 2.6786,2.78208 1.0194,2.27013 1.8535,4.79446 1.8535,5.60961 0,0.88064 -2.0013,3.48343 -4.9316,6.41375 -5.8159,5.81591 -11.5891,8.82051 -18.997,9.88683 -7.5473,1.08639 -28.0823,0.905 -30.7859,-0.27194 z"
       id="path3880"
       transform="scale(0.26458333)" />
    <path
       style="opacity:1;fill:none;fill-opacity:1;stroke:none;stroke-width:31.2135;stroke-miterlimit:4;stroke-dasharray:none;stroke-opacity:1"
       d="m 1619.3394,727.53163 c -18.8336,-2.86543 -37.5868,-11.31152 -53.8759,-24.26473 -30.9696,-24.62726 -46.3499,-67.47823 -38.3046,-106.72028 4.5401,-22.1447 14.437,-40.07859 31.3042,-56.72549 53.3405,-52.64378 142.605,-37.39643 174.985,29.88933 8.8811,18.45505 11.4598,29.29873 11.4285,48.05908 -0.033,20.0712 -2.7944,32.10337 -11.2886,49.19444 -11.125,22.38452 -27.8232,38.85659 -51.3387,50.6432 -17.5087,8.77592 -43.5043,12.87688 -62.9099,9.92445 z m -1.7082,-69.72602 c 1.8444,-1.84435 3.059,-5.80333 3.7446,-12.2054 1.1743,-10.96526 0.1296,-60.37961 -1.3488,-63.79987 -2.6047,-6.02582 -14.4252,-7.24451 -20.403,-2.10354 l -4.0083,3.44709 v 35.00821 35.0082 l 3.4633,3.68756 c 4.3983,4.68301 14.315,5.19495 18.5522,0.95775 z m 53.5299,-0.54287 c 2.9927,-2.99266 3.3395,-4.91781 4.0533,-22.5 0.4293,-10.57503 0.3738,-26.83855 -0.1233,-36.14116 -0.8279,-15.49185 -1.1874,-17.14327 -4.2764,-19.64286 -4.874,-3.94394 -13.7124,-3.63117 -17.9798,0.63627 -4.4533,4.45327 -5.7245,17.90777 -4.7168,49.92174 0.7095,22.5429 0.962,24.27195 4.0193,27.52625 4.4884,4.7777 14.3424,4.88118 19.0238,0.19976 z"
       id="path3892"
       transform="scale(0.26458333)" />
    <path
       style="fill:#575757;stroke-width:0.254;fill-opacity:1"
       d="m 242.66066,314.82139 -3.429,-1.88573 -3.43598,-0.006 c -4.97252,-0.008 -4.56502,0.63714 -4.56502,-7.22788 0,-4.85933 0.0782,-6.49637 0.31974,-6.69686 0.17668,-0.14663 1.96656,-0.30831 4.0005,-0.36135 l 3.68076,-0.096 3.556,-1.95194 c 1.9558,-1.07357 3.74786,-1.95366 3.98236,-1.95575 0.23449,-0.002 0.60597,0.17581 0.8255,0.39534 0.34979,0.34979 0.39914,1.67827 0.39914,10.7442 0,7.70749 -0.0777,10.42277 -0.3048,10.64986 -0.59168,0.59168 -1.63601,0.2577 -5.0292,-1.60833 z m 17.0815,1.74491 c -0.58758,-0.23709 -0.32406,-1.34283 0.61011,-2.56008 1.82613,-2.37951 2.62095,-4.92345 2.62538,-8.40292 0.004,-3.32779 -1.19692,-6.7585 -3.0973,-8.84642 -0.58497,-0.6427 -0.5208,-1.57172 0.13589,-1.96742 0.3914,-0.23584 0.60406,-0.12022 1.34998,0.73394 3.90048,4.46651 4.73869,11.59805 2.0246,17.22551 -0.9191,1.90568 -2.5212,4.00006 -3.03345,3.96556 -0.16374,-0.011 -0.44058,-0.0777 -0.61521,-0.14817 z m -4.74436,-2.77092 c -0.53286,-0.53286 -0.52685,-0.55984 0.44868,-2.01725 1.41529,-2.11441 1.81976,-3.50074 1.81459,-6.21961 -0.004,-2.09796 -0.0965,-2.61057 -0.70861,-3.92628 -0.38721,-0.83231 -0.98522,-1.88196 -1.32891,-2.33256 -0.34369,-0.45059 -0.62489,-0.93303 -0.62489,-1.07207 0,-0.32487 0.72289,-1.05109 1.04627,-1.05109 0.99852,0 3.11952,4.05382 3.53054,6.74785 0.4682,3.06878 -0.37851,6.59012 -2.17935,9.06365 -0.93239,1.28066 -1.35448,1.45119 -1.99832,0.80736 z m -4.52664,-2.41521 c -0.61473,-0.35804 -0.56511,-0.68276 0.36741,-2.40447 0.67141,-1.23963 0.81427,-1.78812 0.8255,-3.16953 0.0115,-1.41015 -0.12002,-1.93379 -0.84375,-3.35992 -0.92705,-1.82681 -0.90898,-2.47573 0.0689,-2.47573 0.78907,0 1.49465,0.88262 2.19967,2.75158 1.00644,2.668 0.3212,6.78268 -1.41944,8.52331 -0.47298,0.47299 -0.59422,0.48662 -1.19832,0.13476 z"
       id="path1076"
       inkscape:export-xdpi="100"
       inkscape:export-ydpi="100" />
    <path
       style="fill:#575757;stroke-width:0.254;fill-opacity:1"
       d="m 314.82083,313.7954 -3.556,-1.96149 -3.68076,-0.0892 c -2.04502,-0.0496 -3.82286,-0.20711 -4.0005,-0.35454 -0.24158,-0.2005 -0.31974,-1.83753 -0.31974,-6.69686 0,-7.86441 -0.40403,-7.2223 4.54442,-7.2223 h 3.41539 l 3.53614,-1.905 c 3.52664,-1.89988 4.38638,-2.17707 4.96325,-1.6002 0.22709,0.22709 0.3048,2.94237 0.3048,10.64986 0,9.06593 -0.0494,10.3944 -0.39914,10.7442 -0.21953,0.21953 -0.59101,0.39866 -0.8255,0.39806 -0.2345,-5e-4 -2.02656,-0.88374 -3.98236,-1.96255 z m 7.61553,-3.53813 c -0.49991,-0.49991 -0.49275,-0.54188 0.3647,-2.13664 1.29519,-2.40892 1.2511,-5.06843 -0.11857,-7.15166 -0.75552,-1.14913 -0.78267,-1.61644 -0.11466,-1.97394 0.76968,-0.41192 1.33224,0.0317 2.15174,1.69672 1.33725,2.71702 1.14948,6.41285 -0.44986,8.85394 -0.64954,0.99139 -1.30078,1.24416 -1.83335,0.71158 z"
       id="path1072"
       inkscape:export-xdpi="100"
       inkscape:export-ydpi="100" />
    <path
       style="fill:#575757;stroke-width:0.254;fill-opacity:1"
       d="m 286.32112,360.58674 c -0.16764,-0.16764 -0.3048,-0.46498 -0.3048,-0.66075 0,-0.19577 4.57955,-4.88779 10.17678,-10.4267 10.16891,-10.06297 11.12543,-10.86957 11.37192,-9.5896 0.0678,0.35215 -2.65488,3.22932 -10.15534,10.7315 -5.63641,5.63769 -10.36855,10.25035 -10.51588,10.25035 -0.14734,0 -0.40504,-0.13716 -0.57268,-0.3048 z m 14.0462,-1.1886 c -0.4191,-0.25787 -1.83828,-1.04431 -3.15373,-1.74765 l -2.39172,-1.27879 3.91572,-3.8421 3.91573,-3.8421 0.0688,5.24468 c 0.0625,4.76844 0.0279,5.27567 -0.381,5.58594 -0.60977,0.46268 -1.07247,0.43456 -1.97375,-0.11998 z m -14.19682,-4.24238 c -0.0848,-0.22097 -0.15418,-3.17506 -0.15418,-6.56463 0,-5.6479 0.0388,-6.19798 0.4645,-6.58322 0.38487,-0.34831 1.06392,-0.42037 3.96111,-0.42037 h 3.4966 l 3.49144,-1.905 c 3.44502,-1.87968 4.44798,-2.19777 5.04555,-1.6002 0.90483,0.90483 0.51037,1.39773 -7.63419,9.53921 -4.36644,4.36479 -8.06896,7.93599 -8.22782,7.93599 -0.15886,0 -0.35822,-0.1808 -0.44301,-0.40178 z"
       id="path1074"
       inkscape:export-xdpi="100"
       inkscape:export-ydpi="100" />
  </g>
</svg>
